<?xml version="1.0" encoding="UTF-8"?>
<svg width="22px" height="16px" viewBox="0 0 22 16" version="1.1" xmlns="http://www.w3.org/2000/svg" xmlns:xlink="http://www.w3.org/1999/xlink">
    <title>Group 7</title>
    <g id="Page-1" stroke="none" stroke-width="1" fill="none" fill-rule="evenodd">
        <g id="Artboard" transform="translate(-130.000000, -1630.000000)" fill="#6F717E" fill-rule="nonzero" stroke="#6F717E">
            <g id="Group-6" transform="translate(130.000000, 1500.000000)">
                <g id="arrow-pointing-to-right-(1)" transform="translate(10.500000, 138.000000) scale(-1, 1) translate(-10.500000, -138.000000) translate(0.000000, 131.000000)">
                    <path d="M19.9591075,6.36601075 L13.9376022,0.344505376 C13.5702151,-0.0228817204 12.9743871,-0.0228817204 12.607,0.344505376 C12.2395376,0.711967742 12.2395376,1.30764516 12.607,1.67510753 L17.0223441,6.09045161 L0.940860215,6.09045161 C0.42127957,6.09045161 0,6.51173118 0,7.03131183 C0,7.5508172 0.42127957,7.97217204 0.940860215,7.97217204 L17.0223441,7.97217204 L12.6071505,12.3875161 C12.2396882,12.7549785 12.2396882,13.3506559 12.6071505,13.7181183 C12.7908065,13.9016989 13.0316667,13.9936774 13.2724516,13.9936774 C13.5132366,13.9936774 13.7540215,13.9016989 13.9377527,13.7181183 L19.9591075,7.6966129 C20.3265699,7.32915054 20.3265699,6.73347312 19.9591075,6.36601075 Z" id="Path"></path>
                </g>
            </g>
        </g>
    </g>
</svg>