<?xml version="1.0" encoding="UTF-8"?>
<svg width="36px" height="35px" viewBox="0 0 36 35" version="1.1" xmlns="http://www.w3.org/2000/svg" xmlns:xlink="http://www.w3.org/1999/xlink">
    <title>Shape</title>
    <g id="Page-1" stroke="none" stroke-width="1" fill="none" fill-rule="evenodd">
        <g id="Artboard" transform="translate(-1268.000000, -2549.000000)" fill="#03ABF4" fill-rule="nonzero">
            <path d="M1286.43891,2549 C1276.78902,2549 1268.93891,2556.85011 1268.93891,2566.5 C1268.93891,2576.14989 1276.78902,2584 1286.43891,2584 C1296.08879,2584 1303.93891,2576.14989 1303.93891,2566.5 C1303.93891,2556.85011 1296.08879,2549 1286.43891,2549 Z M1287.89715,2567.95824 L1284.98066,2567.95824 L1278.78266,2567.95824 C1277.97756,2567.95824 1277.32441,2567.30509 1277.32441,2566.5 C1277.32441,2565.69491 1277.97756,2565.04176 1278.78266,2565.04176 L1284.98066,2565.04176 L1287.89715,2565.04176 L1294.09516,2565.04176 C1294.90025,2565.04176 1295.5534,2565.69491 1295.5534,2566.5 C1295.5534,2567.30509 1294.90025,2567.95824 1294.09516,2567.95824 L1287.89715,2567.95824 Z" id="Shape"></path>
        </g>
    </g>
</svg>