<?xml version="1.0" encoding="UTF-8"?>
<svg width="31px" height="31px" viewBox="0 0 31 31" version="1.1" xmlns="http://www.w3.org/2000/svg" xmlns:xlink="http://www.w3.org/1999/xlink">
    <title>institution</title>
    <g id="Page-1" stroke="none" stroke-width="1" fill="none" fill-rule="evenodd">
        <g id="Artboard" transform="translate(-547.000000, -930.000000)" fill="#510C76" fill-rule="nonzero">
            <g id="institution" transform="translate(547.000000, 930.000000)">
                <path d="M29.731538,13.1337271 C30.3990351,13.1337271 30.940115,12.5926472 30.940115,11.9251501 L30.940115,8.38003119 C30.940115,7.92318908 30.6825673,7.50544444 30.2744912,7.3002885 L16.0132827,0.129378168 C15.6716784,-0.0423606238 15.2690409,-0.0423606238 14.9273762,0.129378168 L0.666167641,7.3002885 C0.258091618,7.50550487 0.000543859649,7.92324951 0.000543859649,8.38003119 L0.000543859649,11.9251501 C0.000543859649,12.5926472 0.541623782,13.1337271 1.20912086,13.1337271 L2.3371462,13.1337271 L2.3371462,23.7725887 C1.81866667,23.8070331 1.37596491,24.1704522 1.24640546,24.6799883 L0.03782846,29.4337446 C-0.156148148,30.1966589 0.420947368,30.940115 1.20912086,30.940115 L29.731538,30.940115 C30.5187446,30.940115 31.0970487,30.1975653 30.9028304,29.4337446 L29.6942534,24.6799883 C29.5613704,24.1573392 29.0989084,23.7886628 28.5632066,23.7708967 L28.5632066,13.1337271 L29.731538,13.1337271 Z M2.41769786,9.12505848 L15.4703294,2.56188109 L28.522961,9.12505848 L28.522961,10.7165731 L2.41769786,10.7165731 L2.41769786,9.12505848 Z M10.7165731,23.7692047 L10.7165731,13.1337271 L20.1837797,13.1337271 L20.1837797,23.7692047 L10.7165731,23.7692047 Z M8.2994191,13.1337271 L8.2994191,23.7692047 L4.75423977,23.7692047 L4.75423977,13.1337271 L8.2994191,13.1337271 Z M2.76335088,28.522961 L3.3574269,26.1863587 L27.5831715,26.1863587 L28.1772476,28.522961 L2.76335088,28.522961 Z M26.1460526,23.7692047 L22.6008733,23.7692047 L22.6008733,13.1337271 L26.1460526,13.1337271 L26.1460526,23.7692047 Z" id="Shape"></path>
            </g>
        </g>
    </g>
</svg>