<?xml version="1.0" encoding="UTF-8"?>
<svg width="31px" height="31px" viewBox="0 0 31 31" version="1.1" xmlns="http://www.w3.org/2000/svg" xmlns:xlink="http://www.w3.org/1999/xlink">
    <title>online-course</title>
    <g id="Page-1" stroke="none" stroke-width="1" fill="none" fill-rule="evenodd">
        <g id="Artboard" transform="translate(-147.000000, -930.000000)" fill="#510C76" fill-rule="nonzero">
            <g id="online-course" transform="translate(147.000000, 930.000000)">
                <path d="M27.3671875,4.76304102 L26.236959,4.76304102 L26.236959,1.2109375 C26.236959,0.542136719 25.6948223,0 25.0260215,0 L5.97397852,0 C5.30517773,0 4.76304102,0.542136719 4.76304102,1.2109375 L4.76304102,4.76304102 L3.6328125,4.76304102 C1.62967969,4.76304102 -1.72084569e-15,6.3927207 -1.72084569e-15,8.39585352 L-1.72084569e-15,22.604207 C-1.72084569e-15,24.6073398 1.62967969,26.2370195 3.6328125,26.2370195 L14.2890625,26.2370195 L14.2890625,28.578125 L10.736959,28.578125 C10.0681582,28.578125 9.52602148,29.1202617 9.52602148,29.7890625 C9.52602148,30.4578633 10.0681582,31 10.736959,31 L20.2629805,31 C20.9317813,31 21.473918,30.4578633 21.473918,29.7890625 C21.473918,29.1202617 20.9317813,28.578125 20.2629805,28.578125 L16.7109375,28.578125 L16.7109375,26.236959 L27.3671875,26.236959 C29.3703203,26.236959 31,24.6072793 31,22.6041465 L31,8.39585352 C31,6.3927207 29.3703203,4.76304102 27.3671875,4.76304102 Z M27.3671875,7.18491602 C28.0348984,7.18491602 28.578125,7.72814258 28.578125,8.39585352 L28.578125,19.0521035 L26.236959,19.0521035 L26.236959,7.18491602 L27.3671875,7.18491602 Z M7.18491602,2.421875 L23.8151445,2.421875 L23.8151445,19.0521035 L7.18491602,19.0521035 L7.18491602,2.421875 Z M3.6328125,7.18491602 L4.76304102,7.18491602 L4.76304102,19.0521035 L2.421875,19.0521035 L2.421875,8.39585352 C2.421875,7.72814258 2.96510156,7.18491602 3.6328125,7.18491602 Z M27.3671875,23.815084 L3.6328125,23.815084 C2.96510156,23.815084 2.421875,23.2718574 2.421875,22.6041465 L2.421875,21.473918 L28.578125,21.473918 L28.578125,22.6041465 C28.578125,23.2718574 28.0348984,23.815084 27.3671875,23.815084 Z M9.52602148,8.35546875 C9.52602148,7.68666797 10.0681582,7.14453125 10.736959,7.14453125 L20.2629805,7.14453125 C20.9317813,7.14453125 21.473918,7.68666797 21.473918,8.35546875 C21.473918,9.02426953 20.9317813,9.56640625 20.2629805,9.56640625 L10.736959,9.56640625 C10.0682188,9.56640625 9.52602148,9.02426953 9.52602148,8.35546875 Z M9.52602148,14.2890625 C9.52602148,13.6202617 10.0681582,13.078125 10.736959,13.078125 L20.2629805,13.078125 C20.9317813,13.078125 21.473918,13.6202617 21.473918,14.2890625 C21.473918,14.9578633 20.9317813,15.5 20.2629805,15.5 L10.736959,15.5 C10.0682188,15.5 9.52602148,14.9578633 9.52602148,14.2890625 Z" id="Shape"></path>
            </g>
        </g>
    </g>
</svg>