<?xml version="1.0" encoding="UTF-8"?>
<svg width="35px" height="28px" viewBox="0 0 35 28" version="1.1" xmlns="http://www.w3.org/2000/svg" xmlns:xlink="http://www.w3.org/1999/xlink">
    <title>online-class</title>
    <g id="Page-1" stroke="none" stroke-width="1" fill="none" fill-rule="evenodd">
        <g id="Artboard" transform="translate(-946.000000, -932.000000)" fill="#510C76" fill-rule="nonzero">
            <g id="online-class" transform="translate(946.000000, 932.000000)">
                <path d="M33.2753623,19.9516908 L32.0128599,19.9516908 L32.0128599,4.08049275 C32.0128599,1.84292754 30.1924541,0.0225217391 27.9548889,0.0225217391 L6.67313043,0.0225217391 C4.43556522,0.0225217391 2.61515942,1.84292754 2.61515942,4.08049275 L2.61515942,19.9516908 L1.352657,19.9516908 C0.605584541,19.9516908 -1.92224122e-15,20.5572754 -1.92224122e-15,21.3043478 C-1.92224122e-15,24.983913 2.99356522,27.9774783 6.67313043,27.9774783 L27.9549565,27.9774783 C31.6344541,27.9774783 34.6280193,24.983913 34.6280193,21.3043478 C34.6280193,20.5572754 34.0224348,19.9516908 33.2753623,19.9516908 Z M5.32047343,4.08049275 C5.32047343,3.33463768 5.92727536,2.72783575 6.67313043,2.72783575 L27.9549565,2.72783575 C28.7008116,2.72783575 29.3076135,3.33463768 29.3076135,4.08049275 L29.3076135,19.9516908 L23.8492367,19.9516908 C23.4857101,18.1927633 22.4275942,16.6851594 20.9757198,15.7284928 C23.9088213,12.5479227 21.6350048,7.37198068 17.3140097,7.37198068 C12.9884155,7.37198068 10.7212947,12.5501546 13.6523671,15.7284928 C12.2004928,16.6851594 11.1423768,18.1928309 10.7788502,19.9516908 L5.32047343,19.9516908 L5.32047343,4.08049275 Z M15.0370145,12.3542899 C15.0370145,11.0987536 16.0584734,10.0772947 17.3140097,10.0772947 C18.5695459,10.0772947 19.5910048,11.0987536 19.5910048,12.3542899 C19.5910048,13.6098261 18.5695459,14.6312174 17.3140097,14.6312174 C16.0584734,14.6312174 15.0370145,13.6098261 15.0370145,12.3542899 L15.0370145,12.3542899 Z M17.3140097,17.3365314 C19.0270145,17.3365314 20.4897778,18.4278551 21.0440966,19.9516908 L13.5839227,19.9516908 C14.1382415,18.4278551 15.6010048,17.3365314 17.3140097,17.3365314 Z M27.9548889,25.2721643 L6.67313043,25.2721643 C4.95999034,25.2721643 3.49702415,24.1809758 2.94277295,22.6570048 L31.685314,22.6570048 C31.1309952,24.1809758 29.668029,25.2721643 27.9548889,25.2721643 L27.9548889,25.2721643 Z" id="Shape"></path>
            </g>
        </g>
    </g>
</svg>