<?xml version="1.0" encoding="UTF-8"?>
<svg width="36px" height="35px" viewBox="0 0 36 35" version="1.1" xmlns="http://www.w3.org/2000/svg" xmlns:xlink="http://www.w3.org/1999/xlink">
    <title>Shape</title>
    <g id="Page-1" stroke="none" stroke-width="1" fill="none" fill-rule="evenodd">
        <g id="Artboard" transform="translate(-1268.000000, -2751.000000)" fill="#03ABF4" fill-rule="nonzero">
            <path d="M1286.43891,2751 C1276.78902,2751 1268.93891,2758.85011 1268.93891,2768.5 C1268.93891,2778.14989 1276.78902,2786 1286.43891,2786 C1296.08879,2786 1303.93891,2778.14989 1303.93891,2768.5 C1303.93891,2758.85011 1296.08879,2751 1286.43891,2751 Z M1294.09516,2769.95824 L1287.89715,2769.95824 L1287.89715,2776.15625 C1287.89715,2776.96134 1287.244,2777.61449 1286.43891,2777.61449 C1285.63381,2777.61449 1284.98066,2776.96134 1284.98066,2776.15625 L1284.98066,2769.95824 L1278.78266,2769.95824 C1277.97756,2769.95824 1277.32441,2769.30509 1277.32441,2768.5 C1277.32441,2767.69491 1277.97756,2767.04176 1278.78266,2767.04176 L1284.98066,2767.04176 L1284.98066,2760.84375 C1284.98066,2760.03866 1285.63381,2759.38551 1286.43891,2759.38551 C1287.244,2759.38551 1287.89715,2760.03866 1287.89715,2760.84375 L1287.89715,2767.04176 L1294.09516,2767.04176 C1294.90025,2767.04176 1295.5534,2767.69491 1295.5534,2768.5 C1295.5534,2769.30509 1294.90025,2769.95824 1294.09516,2769.95824 L1294.09516,2769.95824 Z" id="Shape"></path>
        </g>
    </g>
</svg>