<?xml version="1.0" encoding="UTF-8"?>
<svg width="29px" height="20px" viewBox="0 0 29 20" version="1.1" xmlns="http://www.w3.org/2000/svg" xmlns:xlink="http://www.w3.org/1999/xlink">
    <title>Group 13</title>
    <g id="Page-1" stroke="none" stroke-width="1" fill="none" fill-rule="evenodd">
        <g id="Artboard" transform="translate(-704.000000, -1500.000000)" fill="#03ABF4" fill-rule="nonzero">
            <g id="Group-6" transform="translate(130.000000, 1500.000000)">
                <g id="quote" transform="translate(574.222222, 0.000000)">
                    <path d="M10.9062261,0 L0.787260713,0 C0.352422192,0 0,0.356194151 0,0.79568673 L0,11.0229549 C0,11.4624476 0.352422192,11.8186417 0.787260713,11.8186417 L5.0593802,11.8186417 L5.0593802,18.6934579 C5.0593802,19.1327433 5.41180234,19.4891446 5.84664092,19.4891446 L8.37653597,19.4891446 C8.71542715,19.4891446 9.0161853,19.2699163 9.12320358,18.9450109 L11.6528937,11.274508 C11.6797507,11.1934888 11.6934868,11.1085327 11.6934868,11.0229549 L11.6934868,0.79568673 C11.6934868,0.356194151 11.3410646,0 10.9062261,0 Z" id="Path"></path>
                    <path d="M26.2923929,0 L16.1734275,0 C15.738589,0 15.3861668,0.356194151 15.3861668,0.79568673 L15.3861668,11.0229549 C15.3861668,11.4624476 15.738589,11.8186417 16.1734275,11.8186417 L20.445752,11.8186417 L20.445752,18.6934579 C20.445752,19.1327433 20.7981742,19.4891446 21.2330127,19.4891446 L23.7627028,19.4891446 C24.1015939,19.4891446 24.4023521,19.2699163 24.5095754,18.9450109 L27.0392655,11.274508 C27.0659175,11.1934888 27.0796536,11.1085327 27.0796536,11.0229549 L27.0796536,0.79568673 C27.0796536,0.356194151 26.7272314,0 26.2923929,0 L26.2923929,0 Z" id="Path"></path>
                </g>
            </g>
        </g>
    </g>
</svg>